<svg width="327" height="324" viewBox="0 0 327 324" fill="none" xmlns="http://www.w3.org/2000/svg">
<rect width="327" height="324" fill="#050505"/>
<path fill-rule="evenodd" clip-rule="evenodd" d="M174.825 205.082C178.785 204.239 178.591 200.893 191.344 200.893C193.62 200.893 198.148 202.55 200.907 203.158C206.184 204.321 215.958 208.718 215.958 208.718C215.958 208.718 220.315 211.328 227.28 211.46C234.246 211.591 238.035 209.713 245.392 209.713C250.757 209.713 255.415 211.46 260.011 211.46C264.607 211.46 270.958 210.879 271.175 207.374C274.095 160.157 258.406 140.587 247.638 123.962C230.564 97.5998 235.273 57.6223 213.695 77.0997C208.221 82.0405 207.566 86.1156 197.882 91.3974C190.173 95.602 184.168 96.4369 180.08 99.0078C168.765 106.125 162.822 116.041 154.95 120.785C141.202 129.07 136.693 125.712 125.826 131.381C124.391 132.129 122.8 133.185 121.03 133.894C117.51 135.303 113.498 136.444 110.127 138.798C107.403 140.7 103.214 146.182 103.214 146.182L77.3945 155.093C77.3945 155.093 71.6594 157.733 74.0584 167.152C76.4573 176.572 84.0058 197.415 84.0058 197.415C84.0058 197.415 91.1946 197.313 97.2221 200.893C103.25 204.473 105.225 212.299 105.225 212.299C105.225 212.299 119.683 207.974 125.826 205.854C127.512 205.272 131.328 203.802 137.16 203.527C143.554 203.225 148.374 206.364 157.669 206.821C162.892 207.078 170.865 205.926 174.825 205.082Z" fill="#A445ED"/>
<path fill-rule="evenodd" clip-rule="evenodd" d="M276.099 175.965C275.88 175.426 274.954 175.677 274.779 176.231C274.61 176.762 274.864 177.318 275.097 177.83L275.127 177.897C277.57 183.28 275.625 190.256 270.74 193.633C270.151 193.277 269.729 192.716 269.308 192.158C268.839 191.535 268.371 190.916 267.678 190.585C267.072 190.295 266.376 190.271 265.704 190.253L259.706 190.091C258.977 190.071 258.099 190.13 257.744 190.762C256.972 192.14 254.908 192.69 253.658 191.715C252.408 190.741 252.622 188.411 254.103 187.836C254.213 187.793 254.327 187.759 254.442 187.725C254.691 187.651 254.94 187.577 255.138 187.414C255.397 187.2 255.522 186.87 255.637 186.556L257.964 180.17C258.11 179.769 258.258 179.356 258.248 178.93C258.227 178.061 257.564 177.347 256.885 176.797C256.777 176.71 256.667 176.624 256.557 176.537L256.557 176.537C255.972 176.079 255.378 175.614 255.055 174.956C254.672 174.174 254.897 173.017 255.737 172.766C260.142 171.45 265.095 170.614 269.196 172.681C269.311 172.739 269.425 172.799 269.54 172.859C270.129 173.168 270.727 173.482 271.386 173.501C272.173 173.523 273.044 172.884 272.9 172.117C272.808 171.627 272.363 171.265 271.937 170.918C271.425 170.502 270.939 170.108 271.125 169.537C271.198 169.312 271.374 169.136 271.544 168.97L276.764 163.859C276.945 162.892 275.526 162.364 274.612 162.747C274.16 162.936 273.77 163.239 273.38 163.541C272.983 163.849 272.586 164.157 272.123 164.346C270.267 165.101 268.279 163.704 266.81 162.351C261.551 157.506 256.887 152.028 252.953 146.076C252.772 145.803 252.586 145.502 252.61 145.177C252.64 144.758 253 144.449 253.332 144.189L262.012 137.398C262.711 136.851 263.805 136.329 264.38 137.002L280.363 155.705C280.617 156.002 280.88 156.317 280.959 156.699C281.121 157.483 280.46 158.192 279.792 158.642C279.688 158.712 279.581 158.781 279.473 158.85C278.89 159.226 278.291 159.612 278.033 160.238C277.727 160.979 278.394 162.071 279.142 161.767C282.971 159.043 286.972 156.243 291.615 155.435C292.493 155.282 293.448 155.215 294.23 155.64C295.97 156.587 295.725 159.125 295.064 160.979C293.857 164.362 292.068 167.541 289.798 170.336C289.346 170.893 288.843 171.562 289.034 172.251C289.304 173.226 290.67 173.346 291.647 173.057C291.802 173.011 291.959 172.96 292.117 172.909C292.959 172.638 293.839 172.354 294.605 172.738C295.007 172.94 295.301 173.3 295.582 173.649L309.848 191.348C306.563 193.908 303.218 196.394 299.819 198.803C299.483 199.041 299.108 199.289 298.696 199.256C298.209 199.216 297.852 198.8 297.553 198.417L283.872 180.879C283.288 180.131 283.838 179.013 284.589 178.43C284.861 178.22 285.159 178.04 285.456 177.86C285.982 177.542 286.504 177.226 286.874 176.747C287.454 175.996 287.3 174.595 286.357 174.453C285.82 174.373 285.327 174.742 284.94 175.118C284.637 175.412 284.349 175.727 284.061 176.042L284.06 176.042C283.319 176.852 282.577 177.662 281.587 178.117C279.59 179.034 276.922 177.987 276.099 175.965ZM256.931 186.861C256.904 186.929 256.877 186.998 256.879 187.071C256.882 187.278 257.121 187.417 257.329 187.396C257.537 187.374 257.715 187.243 257.88 187.117L262.3 183.753C262.53 183.578 262.782 183.36 262.781 183.072C262.78 182.848 262.621 182.658 262.471 182.49L260.529 180.31C260.428 180.196 260.319 180.078 260.173 180.033C259.773 179.911 259.465 180.38 259.314 180.766L256.931 186.861ZM264.059 184.764C264.186 184.814 264.28 184.921 264.369 185.024L267.007 188.086C267.073 188.333 266.716 188.457 266.459 188.461L259.417 188.597C259.072 188.603 258.708 188.606 258.406 188.441C259.734 186.815 261.508 185.552 263.486 184.824C263.671 184.756 263.876 184.693 264.059 184.764Z" fill="#050505"/>
<path fill-rule="evenodd" clip-rule="evenodd" d="M123.291 175.398C123.431 173.378 124.928 171.518 126.885 170.935C128.061 170.585 128.879 169.466 129.171 168.285C129.463 167.103 129.31 165.861 129.084 164.665C128.364 160.847 126.698 156.907 123.345 154.895C119.709 152.714 115.023 153.339 111.017 154.744C109.27 155.357 107.455 156.202 106.538 157.797C105.974 158.778 105.819 159.93 105.675 161.05C105.38 163.34 105.084 165.652 105.297 167.951C105.51 170.25 106.277 172.567 107.86 174.261C108.963 175.441 110.653 176.301 112.195 175.803C113.404 175.412 114.513 176.525 115.658 177.074C117.221 177.823 119.066 177.513 120.77 177.187C121.866 176.977 123.215 176.502 123.291 175.398Z" fill="#050505"/>
<path fill-rule="evenodd" clip-rule="evenodd" d="M164.154 205.948C168.113 205.545 172.073 205.142 176.033 204.739C175.326 205.81 173.903 206.112 172.626 206.305C165.114 207.438 157.314 207.94 150.02 205.831C142.376 203.622 134.074 203.7 126.474 206.053C126.535 205.112 127.599 204.607 128.511 204.337C134.655 202.516 141.304 202.4 147.509 204.006C150.254 204.716 152.925 205.758 155.736 206.139C158.524 206.517 161.354 206.232 164.154 205.948Z" fill="white"/>
<path fill-rule="evenodd" clip-rule="evenodd" d="M133.083 127.582C136.965 126.608 141.081 126.577 144.833 125.191C145.032 125.343 145.231 125.494 145.431 125.646C143.674 127.334 140.952 127.352 138.514 127.556C133.879 127.942 129.337 129.385 125.339 131.74C123.421 132.871 121.574 134.23 119.402 134.738C114.225 135.947 109.461 138.829 106.01 142.838C105.777 142.436 105.386 142.126 104.939 141.989C107.683 139.588 110.706 137.5 113.93 135.779C115.879 134.739 117.899 133.833 119.917 132.929C121.613 132.169 123.31 131.408 125.006 130.648C127.637 129.469 130.284 128.284 133.083 127.582V127.582Z" fill="white"/>
<path fill-rule="evenodd" clip-rule="evenodd" d="M208.853 82.5864C208.176 83.5027 207.542 84.4551 206.771 85.2952C205.751 86.4067 204.513 87.297 203.276 88.166C199.536 90.7928 195.676 93.3234 191.408 94.9813C189.42 95.7537 187.358 96.3305 185.375 97.1153C179.161 99.5746 173.916 104.003 169.495 108.98C169.151 109.367 168.784 109.776 168.286 109.924C167.787 110.072 167.132 109.822 167.057 109.311C172.256 104.42 177.6 99.4319 184.175 96.6C187.104 95.3384 190.219 94.5339 193.135 93.2423C196.035 91.9576 198.7 90.2086 201.309 88.4122C203.044 87.2171 204.775 85.9864 206.22 84.4582C208.495 82.0527 210.055 78.9243 212.825 77.0991C213.161 76.8776 213.752 76.7633 213.852 77.1509C211.996 78.7794 210.318 80.605 208.853 82.5864Z" fill="white"/>
<path fill-rule="evenodd" clip-rule="evenodd" d="M78.2324 102.181C78.9477 103.566 80.2364 104.651 81.7325 105.125C81.726 105.298 81.7195 105.471 81.713 105.644C80.4254 106.416 79.7325 108.05 80.0775 109.501C80.1837 109.948 79.5392 110.263 79.1206 110.066C78.7021 109.87 78.4913 109.411 78.2942 108.996C78.0467 108.475 77.7613 107.957 77.3321 107.568C76.9028 107.18 76.3036 106.937 75.7347 107.056C75.3179 107.143 74.9365 106.703 74.9435 106.281C74.9505 105.859 75.2268 105.489 75.5311 105.194C75.8354 104.899 76.1849 104.639 76.4112 104.281C76.6758 103.863 76.7444 103.354 76.7723 102.861C76.7897 102.553 76.7966 102.234 76.9365 101.959C77.0764 101.684 77.3971 101.471 77.6936 101.563C77.9635 101.646 78.1037 101.931 78.2324 102.181L78.2324 102.181Z" fill="white"/>
<path fill-rule="evenodd" clip-rule="evenodd" d="M234.401 211.819C228.845 212.564 223.114 211.988 217.823 210.154C216.912 209.838 215.838 209.21 215.969 208.263C221.147 210.505 226.918 211.386 232.537 210.792C236.28 210.396 239.949 209.361 243.71 209.219C247.969 209.059 252.174 210.048 256.397 210.622C260.619 211.195 265.091 211.319 268.959 209.547C269.321 209.381 269.71 209.195 270.1 209.276C270.49 209.357 270.793 209.863 270.527 210.157C270.446 210.246 270.331 210.297 270.22 210.344C267.114 211.655 263.725 212.305 260.35 212.236C254.93 212.126 249.641 210.198 244.224 210.376C240.913 210.485 237.684 211.379 234.401 211.819Z" fill="white"/>
<path fill-rule="evenodd" clip-rule="evenodd" d="M252.416 116.461C252.476 116.969 252.603 117.68 252.106 117.821C251.643 117.952 251.348 117.363 251.154 116.926C250.632 115.751 249.392 114.925 248.096 114.891C247.584 114.878 247.497 114.075 247.857 113.713C248.218 113.351 248.766 113.265 249.222 113.033C249.933 112.67 250.402 111.949 250.633 111.191C250.864 110.432 250.886 109.63 250.907 108.838C250.912 108.637 251.143 108.5 251.344 108.526C251.544 108.552 251.709 108.694 251.841 108.846C252.745 109.888 252.628 111.587 253.662 112.502C254.143 112.927 254.824 113.127 255.196 113.649C254.905 113.993 254.391 114.011 253.957 114.139C252.985 114.428 252.299 115.462 252.416 116.461H252.416Z" fill="white"/>
<path fill-rule="evenodd" clip-rule="evenodd" d="M104.385 112.984C105.105 113.512 105.482 114.375 106.067 115.048C106.686 115.761 107.554 116.257 108.487 116.432C107.167 117.152 106.301 118.625 106.319 120.118C106.323 120.471 106.269 120.954 105.915 120.985C105.823 120.993 105.733 120.963 105.649 120.928C104.259 120.348 103.69 118.356 102.193 118.183C101.665 118.122 101.571 117.341 101.878 116.91C102.184 116.48 102.699 116.238 103.035 115.83C103.713 115.007 103.552 113.655 104.385 112.984V112.984Z" fill="white"/>
<path fill-rule="evenodd" clip-rule="evenodd" d="M138.492 94.7043C138.161 94.8995 137.723 94.6933 137.482 94.3962C137.242 94.0991 137.118 93.724 136.887 93.419C136.294 92.6333 135.106 92.4383 134.582 91.6053C134.416 91.3407 134.348 90.9601 134.571 90.7404C134.66 90.6529 134.781 90.6064 134.893 90.5506C135.691 90.1525 136.092 89.2498 136.29 88.386C136.488 87.5223 136.55 86.6121 136.949 85.8195C137.049 85.6223 137.182 85.4229 137.389 85.3422C137.596 85.2616 137.884 85.3649 137.916 85.5831C138.032 86.3774 138.147 87.1718 138.263 87.9661C138.33 88.4258 138.403 88.9017 138.659 89.2911C138.914 89.6804 139.407 89.9579 139.854 89.8181C140.165 89.721 140.414 90.1557 140.302 90.4591C140.19 90.7625 139.893 90.95 139.649 91.1642C139.041 91.698 138.704 92.5209 138.765 93.3236C138.802 93.8198 138.923 94.4493 138.492 94.7043V94.7043Z" fill="white"/>
<path fill-rule="evenodd" clip-rule="evenodd" d="M84.9811 153.605C85.344 153.397 85.702 154.027 85.4605 154.366C85.2189 154.706 84.7477 154.769 84.3338 154.836C81.7059 155.258 79.4401 157.003 77.864 159.129C77.0382 160.243 76.3479 161.58 76.5319 162.95C76.6318 163.694 76.9225 164.614 76.3234 165.073C75.6253 164.336 75.2217 163.332 75.2171 162.322C75.209 160.539 76.3648 158.973 77.5554 157.636C78.9231 156.1 80.5769 154.585 82.6324 154.366C83.4573 154.278 84.2631 154.017 84.9811 153.605Z" fill="white"/>
<path fill-rule="evenodd" clip-rule="evenodd" d="M216.125 222.985C217.058 222.224 217.688 221.108 217.853 219.922C217.916 219.475 218.643 219.455 218.918 219.815C219.193 220.174 219.156 220.67 219.142 221.122C219.123 221.709 219.174 222.324 219.476 222.83C219.778 223.336 220.391 223.698 220.966 223.554C221.192 223.497 221.404 223.746 221.387 223.977C221.371 224.208 221.201 224.398 221.021 224.545C220.317 225.116 219.264 225.37 218.932 226.209C218.814 226.505 218.811 226.832 218.751 227.144C218.691 227.456 218.548 227.784 218.261 227.925C217.973 228.066 217.538 227.892 217.537 227.575C217.533 226.467 216.976 225.374 216.077 224.715C215.817 224.524 215.505 224.331 215.447 224.016C215.369 223.591 215.788 223.26 216.125 222.985L216.125 222.985Z" fill="white"/>
<path fill-rule="evenodd" clip-rule="evenodd" d="M86.464 163.33C87.6056 164.178 89.002 164.686 90.4267 164.771C90.7518 164.79 90.7289 165.275 90.6007 165.571C90.2344 166.418 89.8681 167.265 89.5018 168.112C89.7067 168.407 89.9217 168.749 89.8417 169.099C89.7618 169.448 89.1983 169.637 89.043 169.313C88.4419 168.061 86.9256 167.313 85.5544 167.592C85.6235 167.113 85.8896 166.689 86.0887 166.247C86.4977 165.339 86.63 164.31 86.464 163.33Z" fill="white"/>
<path fill-rule="evenodd" clip-rule="evenodd" d="M157.252 197.583C156.77 196.413 155.545 195.583 154.27 195.563C153.922 194.333 155.422 193.318 155.555 192.048C155.583 191.784 155.55 191.513 155.619 191.256C155.687 191 155.904 190.751 156.171 190.769C156.543 191.667 157.212 192.44 158.05 192.942C158.268 193.072 158.505 193.192 158.651 193.398C158.797 193.604 158.808 193.932 158.599 194.076C157.523 194.814 157.338 196.289 157.252 197.583Z" fill="white"/>
<path fill-rule="evenodd" clip-rule="evenodd" d="M110.549 188.835C110.725 188.75 110.929 188.724 111.121 188.762C111.272 190.052 112.253 191.209 113.51 191.577C112.947 192.7 112.633 193.945 112.596 195.198C112.47 195.299 112.288 195.19 112.167 195.083C111.203 194.238 110.238 193.393 109.274 192.548C110.206 191.566 110.683 190.176 110.549 188.835Z" fill="white"/>
<path fill-rule="evenodd" clip-rule="evenodd" d="M239.311 177.583C239.152 177.493 238.979 177.405 238.796 177.419C238.632 177.431 238.48 177.524 238.316 177.528C238.151 177.531 237.968 177.358 238.059 177.222C239.64 176.39 240.282 174.514 240.786 172.812C240.868 172.66 241.121 172.702 241.219 172.844C241.318 172.986 241.312 173.172 241.313 173.344C241.317 174.091 241.538 174.852 242.018 175.428C242.498 176.005 243.252 176.375 244.003 176.309C242.863 177.087 241.62 178.028 241.449 179.388C240.856 178.664 240.127 178.048 239.311 177.583H239.311Z" fill="white"/>
<path fill-rule="evenodd" clip-rule="evenodd" d="M114.818 205.562C116.959 204.707 119.183 203.795 120.702 202.073C120.886 201.865 121.076 201.634 121.346 201.564C121.617 201.495 121.968 201.702 121.913 201.973C121.646 203.295 120.305 204.08 119.097 204.699C118.362 205.075 117.627 205.452 116.892 205.828C116.529 206.014 116.148 206.205 115.738 206.208C115.329 206.211 114.887 205.961 114.818 205.562L114.818 205.562Z" fill="white"/>
<path fill-rule="evenodd" clip-rule="evenodd" d="M198.822 203.231C199.105 202.809 199.717 202.802 200.225 202.855C202.611 203.1 204.965 203.643 207.215 204.465C209.02 205.125 210.763 205.968 212.339 207.06C210.716 207.175 209.19 206.381 207.687 205.764C205.626 204.919 203.453 204.379 201.289 203.843C200.467 203.639 199.645 203.435 198.822 203.231Z" fill="white"/>
<path fill-rule="evenodd" clip-rule="evenodd" d="M81.3109 183.221C80.7719 181.921 80.2733 180.604 79.8163 179.272C79.7039 178.945 79.594 178.617 79.4841 178.289C78.5681 175.553 77.6517 172.816 76.8398 170.048C76.7451 169.726 76.8433 169.198 77.1662 169.302C77.2987 169.344 77.3644 169.488 77.4147 169.617C78.4762 172.33 79.5377 175.044 80.5992 177.758C81.3136 179.584 82.04 181.483 81.9103 183.438C81.9006 183.585 81.6929 183.647 81.5629 183.575C81.433 183.504 81.3674 183.358 81.3109 183.221Z" fill="white"/>
<path fill-rule="evenodd" clip-rule="evenodd" d="M121.981 195.394C122.092 195.862 121.979 196.588 121.502 196.503C120.063 191.355 118.695 186.187 117.401 181.001C117.358 180.826 117.315 180.639 117.378 180.471C117.441 180.302 117.658 180.179 117.81 180.278C117.886 180.327 117.925 180.415 117.959 180.498C119.087 183.224 119.773 186.105 120.454 188.971C120.963 191.112 121.472 193.253 121.981 195.394Z" fill="white"/>
<path fill-rule="evenodd" clip-rule="evenodd" d="M75.9581 142.846C75.7493 143.004 75.5405 143.162 75.3317 143.32C70.7382 139.973 65.1823 137.939 59.4964 137.522C59.4172 137.267 59.3941 136.995 59.4294 136.73C64.5692 136.769 69.6882 138.311 73.9797 141.114C74.7188 141.597 75.4474 142.129 75.9581 142.846Z" fill="white"/>
<path fill-rule="evenodd" clip-rule="evenodd" d="M91.0789 240.011C97.5936 236.572 103.258 231.565 107.447 225.543C108.285 224.339 109.065 223.095 109.844 221.852C110.163 221.343 110.482 220.834 110.801 220.325C111.333 221.936 110.249 223.592 109.222 224.949C104.617 231.032 99.6171 237.416 92.4212 240.06C91.9758 240.224 91.4105 240.348 91.0789 240.011V240.011Z" fill="white"/>
<path fill-rule="evenodd" clip-rule="evenodd" d="M122.026 160.329C122.489 160.147 123.011 160.353 123.446 160.596C124.386 161.122 125.246 161.876 125.634 162.874C126.022 163.872 125.83 165.136 124.985 165.802C124.545 166.149 123.878 166.066 123.409 165.76C122.94 165.454 122.624 164.971 122.321 164.503C121.698 163.539 121.048 162.441 121.289 161.322C121.379 160.903 121.624 160.487 122.026 160.329H122.026Z" fill="#FFB61D"/>
<path fill-rule="evenodd" clip-rule="evenodd" d="M36.5946 169.491C35.7588 169.303 35.0326 168.69 34.7139 167.902C34.3951 167.114 34.4928 166.173 34.9667 165.465C35.5515 164.592 36.602 164.144 37.63 163.898C38.6759 163.648 39.7608 163.558 40.8342 163.633C41.2433 163.662 41.6686 163.72 42.0069 163.95C42.2681 164.128 42.4559 164.394 42.5959 164.676C43.0679 165.626 43.0193 166.812 42.4711 167.721C41.9229 168.63 40.8922 169.234 39.824 169.273C38.7399 169.312 37.6526 169.728 36.5946 169.491M37.9701 167.157C38.7717 167.116 39.5706 167.024 40.3606 166.884C40.6816 166.827 41.0257 166.748 41.239 166.504C41.4523 166.259 41.426 165.798 41.1189 165.689C39.9442 165.272 38.5763 165.433 37.5327 166.111C37.2914 166.268 37.0411 166.52 37.1157 166.796C37.2027 167.118 37.6342 167.175 37.9701 167.157L37.9701 167.157Z" fill="white"/>
<path fill-rule="evenodd" clip-rule="evenodd" d="M93.8106 144.826C93.9463 144.835 94.0022 145.024 93.9344 145.141C93.8762 145.241 93.7679 145.298 93.6583 145.342L85.852 148.366V148.366C85.5402 148.486 85.0019 148.422 85.098 148.104C85.1366 147.977 85.2762 147.912 85.4011 147.862C88.1719 146.765 90.9768 145.752 93.8106 144.826Z" fill="white"/>
<path fill-rule="evenodd" clip-rule="evenodd" d="M119.064 155.232C118.123 155.279 117.198 155.568 116.385 156.041C115.735 156.42 114.914 156.229 114.188 156.027C113.486 155.832 112.785 155.637 112.084 155.442C112.04 155.232 112.294 155.092 112.501 155.028C114.554 154.395 116.705 153.952 118.846 154.144C120.987 154.335 123.13 155.223 124.488 156.875C122.781 156.017 120.975 155.138 119.064 155.232Z" fill="white"/>
<path fill-rule="evenodd" clip-rule="evenodd" d="M110.727 160.512C110.811 162.153 110.12 163.817 108.896 164.925C108.576 165.214 108.169 165.481 107.742 165.413C107.309 165.345 106.992 164.936 106.913 164.509C106.834 164.082 106.948 163.643 107.099 163.236C107.566 161.97 108.402 160.84 109.479 160.017C109.752 159.808 110.127 159.614 110.422 159.792C110.656 159.933 110.713 160.241 110.727 160.512V160.512Z" fill="#FFB61D"/>
<path fill-rule="evenodd" clip-rule="evenodd" d="M163.995 229.606C162.236 229.092 160.313 227.837 160.419 226.023C160.493 224.766 161.536 223.796 162.555 223.044C163.956 222.011 165.459 221.115 167.036 220.373C168.107 219.868 169.36 219.259 169.567 218.102C170.778 211.339 175.969 205.438 182.55 203.275C189.13 201.112 196.822 202.75 201.962 207.36C202.981 208.274 204.238 209.38 205.537 208.937C208.15 208.047 211.071 207.443 213.631 208.474C214.576 208.855 215.53 209.632 215.483 210.642C215.461 211.12 215.212 211.557 214.953 211.961C213.338 214.471 211.006 216.521 208.298 217.81C206.959 218.448 206.08 219.776 205.547 221.151C205.013 222.525 204.76 223.991 204.281 225.385C202.376 230.923 196.826 234.832 190.963 235.526C185.1 236.22 179.107 233.975 174.618 230.175C174.105 229.741 173.468 229.255 172.828 229.464C169.989 230.394 166.863 230.444 163.995 229.606M172.934 224.488C173.227 224.628 173.565 224.632 173.891 224.629C180.932 224.547 187.678 222.005 194.249 219.497C197.099 218.409 199.95 217.321 202.8 216.234C203.382 216.011 204.026 215.729 204.246 215.151C204.391 214.772 204.314 214.347 204.214 213.954C203.342 210.513 200.844 207.583 197.729 205.834C194.614 204.085 190.932 203.461 187.36 203.71C182.482 204.05 177.618 206.092 174.468 209.798C171.317 213.504 170.139 218.947 172.073 223.397C172.261 223.831 172.506 224.282 172.934 224.488M203.33 220.557C195.117 224.415 186.348 227.111 177.372 228.535C176.747 228.635 176.477 229.46 176.723 230.039C176.968 230.617 177.538 230.986 178.086 231.302C181.395 233.208 185.139 234.473 188.967 234.528C192.794 234.583 196.702 233.355 199.528 230.797C202.354 228.239 203.965 224.297 203.33 220.557M161.889 226.732C162.107 227.388 162.784 227.775 163.435 228.022C165.987 228.993 168.828 228.744 171.537 228.379C182.467 226.909 193.169 223.791 203.163 219.164C207.166 217.31 211.231 215.061 213.601 211.365C213.807 211.045 214.005 210.686 213.966 210.308C213.884 209.513 212.885 209.2 212.08 209.162C210.083 209.07 208.106 209.51 206.157 209.948C205.477 210.101 204.629 210.467 204.692 211.155C204.761 211.91 205.83 212.051 206.569 211.856C207.308 211.661 208.223 211.394 208.736 211.955C209.438 212.723 208.471 213.862 207.583 214.41C200.874 218.553 193.284 221.043 185.777 223.495C184.005 224.074 182.229 224.653 180.402 225.025C178.834 225.344 177.238 225.507 175.646 225.67C174.156 225.823 172.666 225.975 171.176 226.128C170.421 226.205 169.636 226.279 168.923 226.022C168.209 225.766 167.594 225.074 167.693 224.328C167.802 223.503 168.653 223.025 169.289 222.481C169.924 221.937 170.357 220.836 169.672 220.354C167.342 221.293 165.155 222.579 163.207 224.155C162.404 224.804 161.566 225.756 161.889 226.732M205.749 214.391C206.368 214.003 206.987 213.616 207.607 213.228C207.796 213.109 208.013 212.916 207.934 212.709C207.864 212.527 207.623 212.496 207.426 212.494C206.86 212.489 206.232 212.508 205.823 212.896C205.422 213.276 205.388 213.973 205.749 214.391M169.029 224.204C168.984 224.253 168.937 224.305 168.917 224.369C168.831 224.643 169.26 224.788 169.534 224.697C169.809 224.606 170.119 224.431 170.361 224.589C170.71 224.817 171.198 224.345 171.07 223.951C170.943 223.557 170.438 223.388 170.034 223.493C169.63 223.598 169.312 223.9 169.029 224.204H169.029Z" fill="white"/>
<path fill-rule="evenodd" clip-rule="evenodd" d="M120.184 171.93C119.717 172.054 119.143 172.005 118.855 171.619C118.631 171.319 118.647 170.902 118.756 170.544C118.917 170.018 119.279 169.534 119.789 169.32C120.299 169.105 120.957 169.21 121.306 169.637C121.626 170.029 121.631 170.62 121.384 171.061C121.138 171.502 120.676 171.799 120.184 171.93L120.184 171.93Z" fill="#FFB61D"/>
<path fill-rule="evenodd" clip-rule="evenodd" d="M118.332 168.382C118.229 168.641 118.023 168.881 117.746 168.933C117.288 169.019 116.909 168.569 116.738 168.139C116.575 167.727 116.496 167.282 116.508 166.84C116.511 166.709 116.547 166.547 116.675 166.515C117.175 166.389 117.74 166.562 118.08 166.946C118.421 167.33 118.522 167.907 118.332 168.382H118.332Z" fill="#FFB61D"/>
<path fill-rule="evenodd" clip-rule="evenodd" d="M195.992 232.338C195.692 232.473 195.23 232.513 195.135 232.201C196.204 231.567 197.273 230.933 198.342 230.299C197.784 231.188 196.955 231.907 195.992 232.338Z" fill="#E7EAEE"/>
<path fill-rule="evenodd" clip-rule="evenodd" d="M111.994 170.53C112.298 170.877 112.565 171.285 112.604 171.743C112.644 172.201 112.391 172.708 111.945 172.835C111.51 172.959 111.063 172.703 110.705 172.429C110.297 172.117 109.907 171.745 109.738 171.263C109.57 170.781 109.69 170.168 110.128 169.901C110.739 169.529 111.525 169.993 111.994 170.53H111.994Z" fill="#FFB61D"/>
<path fill-rule="evenodd" clip-rule="evenodd" d="M178.078 229.613C178.535 230.105 178.993 230.597 179.451 231.089C179.524 231.168 179.473 231.32 179.366 231.339C178.469 230.93 177.697 230.257 177.172 229.429C177.333 229.103 177.83 229.346 178.078 229.613L178.078 229.613Z" fill="#E7EAEE"/>
<path fill-rule="evenodd" clip-rule="evenodd" d="M46.5638 211.444C46.1322 210.954 45.7263 210.386 45.688 209.737C45.6633 209.318 45.7965 208.904 45.9789 208.525C46.7044 207.019 48.2286 205.968 49.8743 205.61C51.5199 205.252 53.265 205.538 54.81 206.204C55.3713 206.446 55.9305 206.753 56.2879 207.246C56.8466 208.016 56.7872 209.101 56.3689 209.954C55.9506 210.807 55.2297 211.472 54.498 212.083C53.8239 212.647 53.0944 213.198 52.233 213.385C51.7696 213.485 51.2899 213.475 50.8156 213.464C50.3402 213.453 49.8611 213.441 49.3972 213.338C48.2667 213.085 47.3259 212.309 46.5638 211.444M49.696 208.56C49.3036 208.187 48.6812 207.802 48.2769 208.163C47.9305 208.471 47.6624 208.865 47.5035 209.299C48.2922 209.326 49.0877 209.058 49.696 208.56M50.8402 206.738C50.3612 206.852 49.8631 206.975 49.4868 207.29C49.752 207.557 50.0583 207.81 50.4281 207.888C50.7979 207.967 51.2404 207.818 51.3847 207.471C51.5291 207.125 51.2079 206.65 50.8402 206.738M52.1503 209.979C52.114 210.264 52.0788 210.561 52.1734 210.833C52.2679 211.105 52.5341 211.341 52.8217 211.303C53.234 211.248 53.4147 210.714 53.8094 210.584C53.3035 210.277 52.7362 210.07 52.1503 209.979M54.0132 207.651C54.3331 207.748 54.7077 207.474 54.7091 207.143C53.9154 206.866 52.9405 207.297 52.6187 208.067C53.1057 208.166 53.6389 208.001 53.9825 207.645M51.2397 211.02C51.2008 210.924 51.1434 210.824 51.0452 210.788C50.7269 210.674 50.6453 211.26 50.3474 211.42C50.0666 211.571 50.1068 212.044 50.3859 212.198C50.6649 212.352 51.0453 212.205 51.2112 211.935C51.377 211.664 51.3587 211.314 51.2397 211.02M48.8977 210.293C48.6106 210.536 48.0869 210.425 47.8878 210.744C47.7138 211.022 47.9978 211.411 48.3269 211.437C48.656 211.463 48.9558 211.238 49.1523 210.975C49.2601 210.831 49.3511 210.653 49.3102 210.478C49.2693 210.303 49.0353 210.177 48.8977 210.293M54.8474 209.257C54.9534 209.151 55.0594 209.045 55.1654 208.94C54.8905 208.676 54.4467 208.737 54.0724 208.817C53.9567 208.841 53.8331 208.87 53.7535 208.957C53.5687 209.159 53.7901 209.51 54.0623 209.548C54.3344 209.586 54.5914 209.429 54.8209 209.279L54.8474 209.257Z" fill="white"/>
<path fill-rule="evenodd" clip-rule="evenodd" d="M194.212 150.182C193.109 149.192 192.007 148.202 190.905 147.212C190.546 146.89 190.244 146.201 190.703 146.047C191.179 146.936 192.241 147.361 193.25 147.476C194.258 147.592 195.285 147.471 196.291 147.61C197.244 147.741 198.146 148.1 199.051 148.424C204.041 150.209 209.35 150.979 214.368 152.686C214.663 152.786 214.999 152.936 215.062 153.238C215.132 153.576 214.812 153.863 214.507 154.029C212.943 154.882 210.829 154.592 209.557 153.35C208.944 152.751 207.939 153.168 207.11 153.399C205.583 153.823 203.959 153.459 202.416 153.095C200.783 152.709 199.151 152.323 197.518 151.937C196.949 151.803 196.374 151.666 195.851 151.406C195.237 151.101 194.72 150.639 194.212 150.182M212.614 153.667C212.873 153.551 212.578 153.182 212.31 153.087C209.673 152.155 206.995 151.243 204.208 150.978C202.762 150.841 201.335 150.516 199.974 150.014C198.149 149.341 196.297 148.331 194.378 148.655C194.544 149.688 195.551 150.402 196.568 150.681C197.586 150.96 198.665 150.925 199.702 151.123C201.004 151.371 202.204 151.979 203.468 152.374C204.733 152.769 206.167 152.934 207.34 152.321C208.17 151.886 209.197 152.159 210.039 152.571C210.881 152.983 211.684 153.535 212.614 153.667Z" fill="white"/>
<path fill-rule="evenodd" clip-rule="evenodd" d="M279.808 164.996C280.639 164.343 281.47 163.69 282.302 163.037C282.54 162.85 282.797 162.654 283.1 162.628C283.546 162.589 283.928 162.92 284.245 163.233C285.337 164.312 286.373 165.445 287.35 166.628C287.588 166.916 287.288 167.326 287.008 167.574C286.086 168.389 285.164 169.205 284.242 170.02C284.009 170.227 283.759 170.441 283.451 170.496C282.973 170.58 282.528 170.259 282.151 169.956C281.352 169.315 280.552 168.674 279.753 168.033C279.274 167.649 278.753 167.185 278.735 166.574C278.716 165.915 279.287 165.406 279.808 164.996M283.989 165.098C283.75 164.834 283.471 164.55 283.114 164.533C282.835 164.52 282.581 164.675 282.346 164.824C281.927 165.09 281.508 165.356 281.09 165.622C280.925 165.727 280.754 165.838 280.662 166.009C280.426 166.443 280.813 166.942 281.171 167.285C281.696 167.788 282.222 168.292 282.747 168.795C282.908 168.949 283.1 169.115 283.323 169.094C283.48 169.078 283.611 168.971 283.729 168.866C284.178 168.466 284.59 168.024 284.958 167.549C285.218 167.213 285.452 166.716 285.167 166.4C284.774 165.966 284.382 165.532 283.989 165.098V165.098Z" fill="#FFB61D"/>
<path fill-rule="evenodd" clip-rule="evenodd" d="M226.392 121.029C229.668 127.293 228.684 134.815 227.617 141.79C233.797 144.899 239.128 149.646 242.904 155.404C244.078 157.194 245.138 159.365 244.464 161.392C243.647 163.853 240.734 164.875 238.164 165.347C231.728 166.529 225.041 166.357 218.676 164.846C216.272 164.275 213.53 163.571 211.499 164.966C202.54 171.117 190.129 171.652 180.403 166.776C170.677 161.899 163.853 151.981 162.262 141.296C161.958 139.256 160.121 137.846 158.486 136.57C152.89 132.203 148.066 126.866 144.3 120.875C142.726 118.371 141.3 115.304 142.418 112.57C143.71 109.412 147.687 108.372 151.123 108.231C158.759 107.918 166.477 110.027 172.871 114.175C177.269 108.754 183.635 104.934 190.522 103.585C197.408 102.236 204.762 103.367 210.912 106.722C213.967 108.388 216.706 110.566 219.321 112.852C222.053 115.241 224.716 117.823 226.392 121.029M231.821 157.154C230.46 159.225 227.643 159.729 225.149 159.796C217.574 159.996 210.145 157.933 202.853 155.888C197.768 154.462 192.659 153.028 187.857 150.842C184.941 149.515 182.159 147.92 179.412 146.277C169.593 140.404 159.575 133.136 155.947 122.355C155.238 120.25 156.667 117.86 158.689 116.904C160.711 115.949 163.113 116.162 165.252 116.821C166.362 117.164 167.48 117.626 168.64 117.544C169.8 117.462 171.015 116.596 170.979 115.445C170.941 114.232 169.656 113.488 168.528 113.018C162.144 110.359 155.121 108.845 148.264 109.796C146.812 109.997 145.269 110.366 144.3 111.456C142.546 113.43 143.569 116.515 144.843 118.823C150.203 128.538 158.544 136.409 167.869 142.51C177.195 148.61 187.521 153.043 197.94 157.046C210.555 161.894 224.009 166.222 237.396 164.271C238.735 164.076 240.1 163.805 241.246 163.092C242.393 162.38 243.289 161.136 243.229 159.796C243.189 158.892 242.732 158.062 242.259 157.287C238.623 151.325 233.333 146.365 227.125 143.096C226.823 144.233 226.521 145.371 226.219 146.508C228.109 147.731 230.048 149.002 231.322 150.848C232.596 152.693 233.053 155.28 231.821 157.154M225.674 142.079C226.026 141.75 226.166 141.261 226.281 140.795C227.524 135.788 227.609 130.502 226.528 125.458C224.54 125.934 222.553 126.41 220.565 126.886C219.62 127.113 218.663 127.34 217.691 127.338C216.509 127.336 215.359 126.994 214.193 126.81C211.585 126.399 208.923 126.774 206.31 127.15C205.299 127.295 204.299 126.865 203.405 126.377C197.123 122.944 193.035 116.291 186.552 113.247C185.861 112.922 185.137 112.635 184.555 112.144C183.371 111.146 182.936 109.448 181.684 108.535C182.654 112.453 185.746 115.5 189.009 117.913C192.272 120.326 195.873 122.362 198.626 125.334C200.036 126.857 202.178 127.483 204.245 127.762C206.311 128.04 208.43 128.042 210.433 128.617C211.958 129.056 213.441 129.828 215.027 129.748C216.5 129.673 217.82 128.871 219.223 128.42C221.276 127.76 223.488 127.859 225.643 127.964C226.079 127.986 226.634 128.107 226.697 128.535C226.774 129.047 226.073 129.282 225.551 129.288C223.016 129.319 220.204 128.735 218.151 130.208C216.564 131.348 214.39 131.264 212.492 130.781C210.593 130.298 208.776 129.466 206.828 129.249C205.445 129.095 204.035 129.257 202.661 129.035C198.825 128.414 196.174 125.059 193.178 122.605C190.876 120.719 188.222 119.295 185.885 117.453C183.548 115.611 181.463 113.197 180.947 110.282C180.814 109.528 179.659 109.742 179.003 110.148C177.398 111.145 175.773 112.156 174.468 113.517C173.162 114.878 172.189 116.648 172.175 118.525C172.157 121.136 174.223 123.61 176.814 124.081C179.008 124.48 178.978 128.556 181.206 128.652C182.639 128.714 183.384 130.305 184.025 131.576C184.666 132.847 186.132 134.175 187.341 133.411C188.127 132.914 189.128 133.471 189.947 133.913C190.766 134.356 192.014 134.573 192.443 133.752C190.756 133.466 189.843 131.148 190.89 129.806C191.679 128.794 193.104 128.544 194.394 128.511C195.906 128.473 197.484 128.651 198.762 129.453C200.039 130.255 200.927 131.808 200.565 133.263C200.144 134.952 200.464 136.808 201.427 138.263C202.205 137.767 202.983 137.272 203.761 136.776C204.805 136.112 205.887 135.432 207.112 135.234C208.336 135.036 209.751 135.448 210.351 136.524C210.951 137.602 210.578 138.935 210.192 140.105C212.249 139.343 214.689 139.694 216.442 141.005C218.75 142.732 221.882 143.325 224.669 142.562C225.032 142.463 225.401 142.335 225.674 142.079M214.38 110.799C213.988 110.578 213.493 110.365 213.108 110.598C211.734 111.431 209.971 111.26 208.419 110.833C206.867 110.405 205.353 109.746 203.743 109.68C202.532 109.629 201.33 109.92 200.118 109.92C197.238 109.921 194.639 108.317 192.22 106.768C191.91 106.569 191.584 106.353 191.429 106.021C191.274 105.688 191.381 105.209 191.733 105.098C194.199 107.736 197.97 109.115 201.574 108.698C202.564 108.583 203.55 108.341 204.544 108.41C205.961 108.509 207.247 109.225 208.597 109.659C209.948 110.094 211.595 110.186 212.629 109.221C204.437 103.023 192.395 102.35 183.552 107.595C183.415 107.677 183.258 107.813 183.314 107.961C184.214 110.357 186.742 111.657 188.917 113.032C193.845 116.146 197.761 120.582 202.34 124.182C203.736 125.28 205.458 126.357 207.185 125.917C209.656 125.289 212.269 125.214 214.772 125.701C215.873 125.915 216.967 126.237 218.088 126.218C220.396 126.179 222.534 124.702 224.836 124.857C225.506 124.903 226.043 124.218 226.076 123.554C226.109 122.889 225.783 122.264 225.446 121.688C222.809 117.179 218.949 113.381 214.38 110.799M177.979 157.333C180.034 158.566 182.767 157.689 185.015 158.528C186.105 158.935 187.071 159.743 188.234 159.821C189.256 159.889 190.251 159.371 191.273 159.449C192.244 159.522 193.081 160.115 193.91 160.621C197.205 162.628 201.192 163.497 205.033 163.045C206.043 162.926 206.966 163.559 207.935 163.868C208.903 164.177 210.287 163.907 210.421 162.907C204.9 161.351 199.578 159.181 194.271 157.015C183.283 152.531 172.128 147.951 162.857 140.587C163.406 142.372 163.955 144.156 164.505 145.941C165.189 148.165 165.877 150.397 166.88 152.498C170.847 160.816 179.476 166.264 188.511 168.386C192.502 169.323 196.762 169.683 200.66 168.415C198.064 168.201 196.166 165.919 193.75 164.956C191.256 163.963 188.187 164.365 186.095 162.693C183.553 160.66 179.111 161.352 177.47 158.553C177.163 158.03 177.457 157.02 177.979 157.333M172.41 130.16C172.434 131.458 173.174 132.721 174.3 133.385C174.837 133.701 175.464 133.898 175.89 134.351C176.395 134.888 176.506 135.75 176.154 136.396C175.561 137.48 174.061 137.649 172.827 137.485C172.148 137.395 171.466 137.24 170.875 136.896C170.092 136.44 169.537 135.692 168.919 135.032C167.585 133.608 165.872 132.535 164.001 131.951C164.146 133.365 165.303 134.443 166.406 135.351C171.208 139.302 176.445 142.707 181.796 145.891C183.543 146.931 185.306 147.949 187.124 148.862C193.788 152.209 201.084 154.092 208.316 155.951C210.93 156.623 213.544 157.295 216.158 157.967C216.519 158.06 216.904 158.152 217.259 158.037C217.641 157.913 217.906 157.576 218.145 157.254C219.853 154.958 221.48 152.601 223.021 150.191C223.095 150.075 223.173 149.944 223.148 149.809C223.116 149.628 222.923 149.528 222.752 149.455C219.943 148.258 217.134 147.061 214.325 145.863C213.82 145.648 213.294 145.429 212.745 145.447C212.09 145.469 211.502 145.824 210.884 146.039C207.035 147.382 203.069 143.279 199.057 144.014C197.734 144.256 196.569 145.007 195.296 145.435C194.023 145.864 192.429 145.885 191.532 144.893C191.012 144.319 190.837 143.526 190.532 142.817C190.227 142.107 189.66 141.39 188.882 141.358C188.5 141.343 188.135 141.498 187.761 141.569C186.282 141.851 184.872 140.813 183.932 139.647C182.992 138.482 182.267 137.103 181.044 136.233C179.652 135.242 177.78 135.037 176.486 133.925C175.173 132.797 174.681 130.923 173.315 129.86C173.078 129.676 172.701 129.534 172.507 129.762C172.416 129.869 172.407 130.02 172.41 130.16M208.643 140.564C208.366 139.685 209.401 138.863 209.317 137.947C209.213 136.818 207.634 136.544 206.532 136.848C205.474 137.14 204.485 137.674 203.663 138.396C202.716 139.228 201.432 140.384 200.419 139.631C200.153 139.433 199.986 139.133 199.842 138.836C198.926 136.952 198.625 134.78 198.997 132.721C199.181 131.698 198.385 130.702 197.421 130.292C196.458 129.882 195.369 129.919 194.321 129.962C193.657 129.99 192.936 130.038 192.434 130.472C191.933 130.905 191.885 131.869 192.498 132.125C193.39 132.496 193.888 133.605 193.569 134.51C192.535 135.527 190.857 135.381 189.416 135.165C188.3 134.998 187.184 134.831 186.067 134.663C185.253 134.541 184.391 134.398 183.769 133.863C182.553 132.818 182.569 130.561 181.04 130.059C180.63 129.924 180.179 129.956 179.766 129.829C177.699 129.194 178.033 125.379 175.9 125.015C172.52 124.438 170.11 120.618 171.068 117.354C167.935 121.375 165.485 125.916 163.852 130.73C166.034 131.161 168.076 132.259 169.629 133.837C170.407 134.627 171.101 135.561 172.119 136.011C173.136 136.46 174.616 136.138 174.895 135.069C173.611 134.936 172.555 133.982 171.851 132.91C171.369 132.175 170.997 131.327 171.032 130.451C171.068 129.574 171.591 128.678 172.433 128.404C173.552 128.041 174.727 128.863 175.397 129.823C176.066 130.783 176.473 131.932 177.304 132.759C178.144 133.596 179.311 134.001 180.374 134.533C181.984 135.338 183.419 136.483 184.557 137.869C185.349 138.834 186.133 140.002 187.371 140.211C188.503 140.401 189.764 139.712 190.765 140.271C192.253 141.104 191.766 143.917 193.404 144.401C194.124 144.614 194.863 144.21 195.538 143.883C198.69 142.362 202.563 142.403 205.681 143.99C206.506 144.41 207.314 144.942 208.237 145.029C209.727 145.169 211.076 144.123 212.564 143.973C214.282 143.799 215.857 144.818 217.369 145.643C219.051 146.561 220.842 147.283 222.692 147.791C223.017 147.88 223.367 147.962 223.685 147.851C224.076 147.714 224.311 147.324 224.485 146.952C224.965 145.931 225.242 144.818 225.296 143.694C222.102 144.203 218.428 144.586 216.007 142.459C214.827 141.424 213.173 140.941 211.615 141.177C210.513 141.345 208.975 141.618 208.643 140.564M158.976 125.267C159.975 126.879 160.975 128.49 161.974 130.101C162.096 130.298 162.304 130.525 162.517 130.432C162.643 130.377 162.698 130.234 162.741 130.104C164.001 126.306 165.78 122.677 168.014 119.347C168.171 119.113 167.851 118.855 167.588 118.751C166.805 118.442 166.02 118.132 165.209 117.907C163.623 117.467 161.945 117.357 160.314 117.586C159.175 117.746 157.926 118.178 157.445 119.213C157.224 119.69 157.2 120.233 157.235 120.756C157.288 121.531 157.464 122.299 157.755 123.021C158.073 123.812 158.526 124.542 158.976 125.267M230.183 157.385C231.351 156.735 231.724 155.16 231.363 153.882C231.002 152.603 230.078 151.564 229.139 150.617C228.108 149.577 227.026 148.588 225.896 147.654C224.022 151.228 221.886 154.667 219.51 157.935C219.358 158.144 219.491 158.458 219.713 158.59C219.935 158.722 220.209 158.723 220.469 158.718C223.293 158.66 226.112 158.351 228.881 157.796C229.329 157.706 229.784 157.607 230.183 157.385M182.645 159.755C184.317 159.893 185.627 161.176 187.136 161.903C189.953 163.26 193.534 162.688 196.097 164.472C196.886 165.021 197.53 165.768 198.366 166.242C199.273 166.756 200.336 166.911 201.375 167.012C203.48 167.215 205.896 167.112 207.288 165.535C207.366 165.446 207.442 165.349 207.476 165.236C207.648 164.66 206.772 164.404 206.167 164.438C201.362 164.706 196.293 163.975 192.406 161.163C191.387 160.426 189.985 161.156 188.724 161.183C187.424 161.211 186.259 160.464 185.062 159.96C183.395 159.257 181.537 159.005 179.741 159.238C180.436 159.969 181.636 159.672 182.645 159.755V159.755Z" fill="white"/>
<path fill-rule="evenodd" clip-rule="evenodd" d="M110.495 151.037C109.858 150.531 109.613 149.699 109.237 148.98C107.974 146.563 105.06 145.355 102.313 145.337C99.566 145.319 96.9198 146.279 94.3442 147.227C90.2392 148.736 86.1341 150.246 82.0291 151.756C78.2031 153.163 74.0011 154.905 72.3312 158.595C70.7431 162.104 72.0017 166.169 73.2717 169.803C76.3307 178.556 79.3897 187.308 82.4486 196.061C82.8381 197.175 83.5548 198.515 84.7406 198.414C93.7463 197.644 102.777 204.405 104.491 213.198C110.166 211.968 115.648 209.869 120.683 206.998C122.066 206.21 123.462 205.319 124.314 203.981C125.87 201.539 125.207 198.368 124.493 195.568C123.18 190.422 121.867 185.276 120.554 180.13C116.988 180.008 113.323 179.559 110.208 177.834C104.6 174.727 101.841 167.384 103.969 161.377C106.097 155.37 112.821 151.353 119.186 152.223C125.551 153.092 130.906 158.708 131.494 165.047C132.081 171.386 127.897 177.841 121.858 180.015C122.95 184.069 124.043 188.123 125.136 192.177C125.915 195.068 126.7 198.011 126.594 201.002C126.427 205.716 124.078 210.055 121.669 214.124C114.442 226.333 105.344 238.568 91.9808 243.572C87.0809 245.407 81.8392 246.165 76.6207 246.614C73.8967 246.848 71.1325 246.999 68.4453 246.499C65.3906 245.931 62.5555 244.544 59.8578 243.015C38.8226 231.092 23.9331 209.083 20.7959 185.273C20.4654 182.765 20.2542 180.223 19.5198 177.8C18.8516 175.596 17.7618 173.532 17.1418 171.314C15.8175 166.577 16.8218 161.257 19.7847 157.314C21.364 155.213 21.6763 152.466 22.5413 149.99C23.3691 147.621 24.743 145.441 26.5282 143.663C28.4851 141.715 30.8947 140.275 33.3551 139.005C45.9865 132.486 60.7135 130.03 74.8027 132.093C88.8919 134.157 102.272 140.729 112.46 150.59C112.349 151.391 111.132 151.544 110.495 151.037ZM91.5933 208.01C90.6252 206.855 89.6758 205.639 89.1958 204.215C88.7159 202.791 88.7798 201.104 89.7161 199.924C89.2303 199.403 88.3701 199.275 87.7512 199.631C87.1322 199.986 86.8173 200.79 87.0319 201.466C87.4297 202.72 86.5863 204.219 85.3005 204.543C86.0746 203.031 86.3274 201.262 86.0077 199.596C85.9849 199.476 85.9522 199.347 85.8528 199.276C85.642 199.125 85.3681 199.357 85.2346 199.578C84.4386 200.895 84.4789 202.579 84.9778 204.032C85.4767 205.486 86.385 206.761 87.2814 208.013C89.5333 207.286 92.2492 208.785 92.8108 211.065C93.2973 213.04 95.2878 214.399 97.3228 214.66C99.3578 214.921 101.407 214.27 103.25 213.375C99.9551 212.935 96.4817 212.423 93.8874 210.363C93.0268 209.68 92.2978 208.85 91.5933 208.01ZM24.0834 169.382C22.3989 165.528 21.5251 161.369 21.031 157.198C18.3268 161.039 17.2622 165.975 18.1461 170.576C19.03 175.176 21.8508 179.38 25.7901 181.967C27.0282 182.78 27.2496 184.447 27.5267 185.893C28.1993 189.402 29.8472 192.642 31.4764 195.828C34.6246 201.986 37.8115 208.202 42.2721 213.503C45.0224 216.772 48.8046 219.864 53.0804 219.463C57.6984 219.029 61.0312 214.475 61.6329 209.918C62.2345 205.361 60.7617 200.813 59.3083 196.448C57.7178 191.671 56.1273 186.895 54.5368 182.118C54.3471 181.548 54.1843 180.845 54.6034 180.412C57.1917 177.737 57.8901 173.686 57.3041 170.027C56.718 166.367 55.0137 162.99 53.3138 159.69C52.7156 159.888 52.7408 160.72 52.8324 161.338C53.518 165.965 51.0727 170.73 47.272 173.503C43.4714 176.276 38.5239 177.213 33.8245 176.778C32.0434 176.614 30.2395 176.249 28.7076 175.334C26.5079 174.019 25.1043 171.717 24.0834 169.382ZM73.9977 227.346C72.0028 225.955 70.4304 224.055 68.9827 222.109C66.6555 218.982 64.5799 215.671 62.7823 212.218C61.8736 214.768 60.2469 217.063 58.1341 218.775C55.7135 220.736 52.1527 220.847 49.236 219.73C46.3193 218.613 43.9403 216.45 41.8278 214.166C34.2664 205.989 29.2456 195.726 26.2478 185.041C25.9416 183.949 25.6019 182.77 24.6928 182.084C23.7838 181.397 22.1306 181.636 21.898 182.745C21.8483 182.983 21.8687 183.228 21.8893 183.47C22.2454 187.643 22.6073 191.849 23.7805 195.873C24.3451 197.81 25.0933 199.688 25.8572 201.556C28.6596 208.41 31.7289 215.241 36.2098 221.155C42.1383 228.979 50.2586 234.845 58.252 240.59C61.2369 242.735 64.8059 244.994 68.3489 243.982C69.7898 243.57 71.0242 242.65 72.1509 241.669C76.0233 238.299 79.0495 233.981 80.884 229.209C78.474 229.582 75.9926 228.737 73.9977 227.346ZM55.7226 145.227C52.3033 142.668 48.5623 140.411 44.4141 139.345C40.266 138.279 35.6486 138.509 31.9618 140.673C30.693 141.418 29.559 142.373 28.526 143.416C25.0206 146.955 22.6182 151.711 22.543 156.67C22.5033 159.29 23.0983 161.877 23.7782 164.409C24.4335 166.849 25.1915 169.312 26.6273 171.398C28.0631 173.485 30.2891 175.171 32.8273 175.399C36.8099 175.756 40.9566 175.266 44.4774 173.387C47.9982 171.508 50.809 168.115 51.3805 164.193C51.7981 161.328 51.0364 158.428 51.0474 155.533C51.0528 154.127 51.2417 152.722 51.6081 151.364C51.9407 150.132 52.4419 148.902 53.3475 147.995C54.2531 147.088 55.6324 146.563 56.8633 146.937C56.9265 146.225 56.2985 145.659 55.7226 145.227ZM109.933 212.736C105.614 214.061 101.294 215.386 96.9752 216.711C94.0064 217.622 90.9922 218.54 87.8856 218.627C84.7789 218.713 81.5133 217.864 79.3225 215.68C80.5098 218.532 82.5587 221.026 85.1366 222.756C85.7916 223.196 85.5351 224.194 85.2082 224.908C83.3538 228.957 81.4842 233.033 78.9068 236.674C76.3295 240.314 72.9729 243.533 68.8423 245.272C69.8195 245.677 70.8606 245.931 71.916 246.021C73.4172 246.149 74.925 245.948 76.4182 245.748C82.9665 244.869 89.6644 243.944 95.5281 240.925C100.702 238.261 104.92 234.12 109.05 230.042C112.442 226.692 115.977 223.093 117.098 218.48C118.195 213.962 123.334 211.045 123.821 206.424C119.867 209.658 114.831 211.233 109.933 212.736ZM57.9978 166.315C59.1462 169.663 59.4704 173.412 58.1661 176.704C57.4204 178.585 56.1484 180.349 56.1188 182.37C56.1049 183.315 56.3699 184.241 56.6536 185.144C59.0869 192.886 63.1094 200.357 63.2116 208.465C63.2357 210.38 64.1696 212.158 65.1466 213.81C67.018 216.975 69.1354 219.997 71.4739 222.84C73.376 225.153 75.6086 227.46 78.5382 228.149C79.289 228.326 80.1033 228.384 80.8125 228.082C82.0942 227.537 82.6234 226.051 83.0154 224.725C83.212 224.06 83.3719 223.24 82.8701 222.757C79.217 219.241 76.5114 214.767 75.1052 209.916C74.7272 208.612 74.4342 207.265 73.7721 206.078C73.3776 205.37 72.8613 204.737 72.4285 204.053C71.3397 202.33 70.8083 200.329 70.26 198.37C68.1833 190.95 65.6575 183.654 62.7006 176.534C61.8261 174.428 61.552 172.133 61.2863 169.872C61.1974 169.114 61.1084 168.357 61.0194 167.599C60.6535 164.484 60.3078 161.209 61.5158 158.31C62.5835 155.747 61.5265 152.794 60.0366 150.447C59.2083 149.142 57.9847 147.793 56.4313 147.877C54.8057 147.964 53.7272 149.568 53.1204 151.064C52.3539 152.955 51.9367 155.221 53.0317 156.946C54.9321 159.939 56.8494 162.967 57.9978 166.315ZM56.7532 144.602C59.5055 146.879 61.9075 149.731 62.9459 153.132C63.1748 153.881 63.8506 154.865 64.4873 154.401C67.8709 151.936 71.8401 150.409 75.7574 148.908C77.4327 148.267 79.108 147.625 80.7833 146.983C86.3058 144.868 91.9055 142.734 97.7909 142.094C94.2579 139.142 89.9916 137.165 85.6144 135.697C74.3422 131.916 61.9863 131.368 50.418 134.135C49.3142 134.399 48.2159 134.693 47.15 135.08C44.827 135.925 42.6466 137.217 40.2107 137.65C46.2535 138.29 52.0884 140.743 56.7532 144.602ZM67.5291 178.771C69.1117 179.47 71.4117 177.396 72.445 178.774C70.5707 179.562 68.6273 180.189 66.644 180.645C66.2375 180.738 66.238 181.309 66.3404 181.71C67.1223 184.769 68.25 187.741 69.6957 190.553C71.2146 189.667 73.2568 190.182 74.5744 191.342C75.8921 192.502 76.6271 194.168 77.2168 195.813C77.7243 197.229 78.1542 198.673 78.5041 200.135C79.0538 202.432 79.1604 205.359 77.1383 206.608C76.4006 207.064 76.7307 208.182 77.144 208.94C78.1151 210.72 79.1086 212.52 80.5245 213.978C84.2826 217.849 90.9616 218.475 95.3858 215.372C91.8039 214.539 88.5566 212.365 86.4391 209.384C84.9777 207.326 84.0627 204.946 83.1742 202.589C79.3013 192.314 75.6518 181.956 72.2292 171.525C71.4006 169 70.5793 166.441 70.3891 163.792C70.1989 161.144 70.6972 158.358 72.2933 156.225C74.2896 153.557 77.6322 152.304 80.7879 151.185C87.8495 148.68 94.9111 146.175 101.973 143.671C98.1708 142.142 93.8744 143.455 89.9927 144.772C82.5668 147.293 75.1194 149.822 68.0578 153.218C66.7954 153.825 65.5264 154.473 64.5134 155.435C61.4466 158.348 61.5405 163.217 62.4545 167.328C62.5026 167.545 62.5703 167.785 62.7655 167.893C62.9281 167.983 63.1287 167.951 63.3116 167.917C64.8291 167.631 66.3466 167.345 67.8641 167.059C69.3531 166.778 70.5092 168.316 71.0938 169.702C71.9227 171.666 72.4411 173.758 72.6246 175.879C72.6638 176.333 72.6682 176.844 72.3521 177.173C72.0361 177.503 71.3073 177.371 71.3169 176.916C71.3452 175.573 71.2202 174.228 70.945 172.913C70.6271 171.394 70.0502 169.831 68.8224 168.868C67.5946 167.904 65.5712 167.815 64.5964 169.03C67.1244 171.521 68.2665 175.315 67.5291 178.771ZM123.291 175.398C123.431 173.379 124.928 171.519 126.885 170.935C128.061 170.585 128.879 169.467 129.171 168.285C129.463 167.103 129.31 165.861 129.084 164.665C128.364 160.847 126.698 156.907 123.345 154.896C119.709 152.714 115.023 153.34 111.017 154.745C109.27 155.357 107.455 156.202 106.538 157.797C105.974 158.778 105.819 159.93 105.675 161.05C105.38 163.34 105.084 165.652 105.298 167.951C105.511 170.25 106.277 172.567 107.86 174.261C108.963 175.441 110.653 176.301 112.195 175.803C113.404 175.412 114.513 176.525 115.658 177.074C117.221 177.823 119.066 177.513 120.77 177.187C121.866 176.977 123.215 176.502 123.291 175.398ZM76.8283 199.844C76.543 198.926 76.2577 198.009 75.9725 197.092C75.3683 195.149 74.6991 193.103 73.1616 191.757C72.5478 191.219 71.6189 190.818 70.9346 191.264C70.2396 191.717 70.2565 192.718 70.3813 193.532C70.875 196.755 71.8317 199.908 73.2138 202.866C73.6783 203.86 74.2081 204.855 75.029 205.589C75.2327 205.772 75.4647 205.941 75.7355 205.986C76.3127 206.08 76.8187 205.579 77.0781 205.059C77.8769 203.459 77.3589 201.55 76.8283 199.844ZM101.403 209.494C98.7325 209.16 96.2339 207.652 94.7108 205.453C94.1404 204.63 93.6972 203.699 93.5761 202.707C93.5045 202.122 93.5412 201.505 93.289 200.97C93.0369 200.436 92.3373 200.041 91.8391 200.364C91.8292 201.972 91.8476 203.682 92.7236 205.036C93.0254 205.502 93.4168 205.904 93.8059 206.302C95.0261 207.549 96.2615 208.801 97.7103 209.779C99.1592 210.758 100.853 211.455 102.606 211.461C102.518 210.634 102.235 209.597 101.403 209.494ZM90.6705 199.907C90.0971 200.405 89.9926 201.246 90.0241 202.002C90.1308 204.557 91.3729 207.006 93.2296 208.783C95.0862 210.56 97.5213 211.687 100.053 212.185C100.674 212.307 101.344 212.388 101.919 212.126C100.207 211.897 98.552 211.264 97.1297 210.293C96.59 209.924 96.0845 209.509 95.582 209.092C94.2539 207.99 92.9192 206.849 91.9919 205.399C90.9561 203.78 90.4833 201.815 90.6705 199.907ZM66.1998 177.064C66.1235 174.571 65.2034 172.111 63.6219 170.172C62.7773 170.948 62.956 172.293 63.2012 173.408C63.5521 175.004 63.9551 176.696 65.1324 177.839C65.2568 177.96 65.4012 178.079 65.5746 178.095C66.033 178.138 66.2138 177.52 66.1998 177.064ZM95.7181 205.511C97.0219 207.129 98.9076 208.276 100.953 208.696C101.078 208.722 101.227 208.738 101.316 208.648C101.386 208.578 101.391 208.468 101.38 208.37C101.307 207.722 100.715 207.244 100.099 207.013C99.484 206.783 98.8143 206.725 98.1952 206.505C96.6951 205.971 95.6356 204.409 95.7037 202.831C95.7335 202.142 95.1997 201.471 94.5164 201.34C94.118 202.788 94.7723 204.338 95.7181 205.511ZM90.4345 209.153C89.6952 208.824 88.843 208.846 88.0796 208.577C87.7882 208.474 87.5092 208.865 87.6202 209.151C87.7311 209.437 88.068 209.575 88.3771 209.588C88.6862 209.6 88.9923 209.521 89.3016 209.519C90.4086 209.514 91.3443 210.71 91.0626 211.771C90.9544 212.178 91.4123 212.614 91.8186 212.49C92.3019 211.253 91.6561 209.696 90.4345 209.153ZM98.6985 204.6C98.0483 203.964 97.3925 203.324 96.629 202.828C96.43 204.549 98.0694 206.239 99.8134 206.111C99.9736 205.945 99.803 205.679 99.6379 205.518C99.3248 205.212 99.0116 204.906 98.6985 204.6ZM89.6233 210.951C89.7923 211.205 90.3123 211.067 90.2522 210.769C89.878 210.347 89.3217 210.089 88.7549 210.074C88.831 210.493 89.1702 210.853 89.5866 210.958M84.2156 199.8C84.1983 199.588 83.9484 199.429 83.7467 199.502C83.6475 199.809 83.7266 200.166 83.9464 200.403C84.2287 200.406 84.4169 200.013 84.236 199.799M77.6813 212.963C77.681 213.279 77.859 213.59 78.1331 213.751C78.2984 213.436 78.0289 212.992 77.6704 212.988" fill="white"/>
<path fill-rule="evenodd" clip-rule="evenodd" d="M276.535 175.102C276.316 174.563 275.39 174.813 275.215 175.367C275.039 175.921 275.322 176.503 275.563 177.033C278.006 182.416 276.061 189.392 271.176 192.769C269.931 192.015 269.429 190.349 268.114 189.721C267.508 189.431 266.812 189.408 266.14 189.389C264.14 189.335 262.141 189.281 260.142 189.227C259.413 189.207 258.535 189.266 258.18 189.899C257.408 191.277 255.344 191.826 254.094 190.852C252.845 189.877 253.058 187.547 254.539 186.972C254.889 186.836 255.286 186.788 255.574 186.55C255.833 186.336 255.958 186.007 256.073 185.693C256.848 183.564 257.624 181.435 258.4 179.306C258.546 178.905 258.694 178.493 258.684 178.066C258.663 177.197 258 176.483 257.321 175.934C256.641 175.384 255.874 174.874 255.491 174.092C255.108 173.31 255.333 172.153 256.173 171.902C260.578 170.586 265.531 169.75 269.632 171.817C270.334 172.171 271.035 172.615 271.822 172.637C272.609 172.659 273.48 172.02 273.336 171.253C273.134 170.174 271.22 169.718 271.561 168.674C271.634 168.448 271.81 168.273 271.98 168.106C273.72 166.402 275.46 164.699 277.2 162.995C277.381 162.028 275.962 161.5 275.048 161.883C274.134 162.266 273.476 163.109 272.559 163.482C270.703 164.237 268.715 162.841 267.246 161.487C261.987 156.642 257.323 151.164 253.389 145.212C253.208 144.939 253.022 144.639 253.046 144.313C253.076 143.895 253.436 143.585 253.768 143.325C256.662 141.062 259.555 138.798 262.448 136.534C263.147 135.987 264.241 135.465 264.816 136.139C270.144 142.373 275.471 148.607 280.799 154.841C281.053 155.139 281.316 155.453 281.395 155.835C281.557 156.619 280.896 157.329 280.228 157.778C279.559 158.228 278.775 158.633 278.469 159.374C278.163 160.115 278.83 161.207 279.578 160.904C283.407 158.179 287.408 155.38 292.051 154.571C292.93 154.418 293.884 154.351 294.666 154.776C296.406 155.723 296.161 158.261 295.5 160.115C294.293 163.499 292.504 166.677 290.234 169.472C289.782 170.029 289.279 170.699 289.47 171.388C289.74 172.362 291.106 172.482 292.083 172.193C293.06 171.904 294.131 171.418 295.041 171.874C295.443 172.076 295.737 172.436 296.018 172.785C300.774 178.685 305.529 184.585 310.284 190.485C306.999 193.045 303.655 195.53 300.255 197.939C299.919 198.177 299.544 198.426 299.132 198.392C298.645 198.352 298.289 197.936 297.989 197.553C293.429 191.707 288.868 185.861 284.308 180.015C283.724 179.267 284.274 178.149 285.025 177.567C285.776 176.984 286.731 176.634 287.31 175.883C287.89 175.132 287.736 173.732 286.793 173.59C286.256 173.509 285.764 173.878 285.376 174.255C284.293 175.305 283.398 176.621 282.023 177.253C280.026 178.17 277.358 177.124 276.535 175.102M271.96 190.887C274.743 187.708 276.489 183.277 275.273 179.245C274.254 175.869 271.254 173.284 267.859 172.24C264.463 171.195 260.741 171.557 257.383 172.715C257.081 172.819 256.728 172.997 256.716 173.314C256.709 173.509 256.841 173.679 256.966 173.83C261.674 179.509 266.381 185.187 271.089 190.866C271.205 191.006 271.345 191.159 271.528 191.159C271.705 191.16 271.845 191.019 271.96 190.887M293.76 159.543C291.978 159.383 290.559 157.505 290.905 155.765C284.061 158.806 277.91 163.369 273.039 169.021C274.934 171.539 277.06 173.886 279.383 176.024C279.622 176.245 279.888 176.475 280.214 176.506C280.567 176.541 280.893 176.334 281.184 176.133C286.763 172.262 291.245 166.856 293.996 160.682C294.181 160.265 294.219 159.584 293.76 159.543M268.714 154.432C269.097 154.12 269.516 153.729 269.483 153.239C269.458 152.878 269.19 152.585 268.936 152.324C267.805 151.16 266.674 149.996 265.543 148.833C265.221 148.502 264.69 148.448 264.246 148.58C263.802 148.713 263.424 148.999 263.057 149.28C262.774 149.497 262.48 149.931 262.763 150.149C264.291 151.328 265.663 152.706 266.833 154.236C267.046 154.515 267.286 154.82 267.633 154.884C268.031 154.958 268.401 154.687 268.714 154.432M272.805 161.353C273.257 161.445 273.685 161.142 274.045 160.856C274.352 160.613 274.689 160.309 274.674 159.919C274.663 159.655 274.489 159.429 274.323 159.222C273.182 157.806 272.042 156.389 270.901 154.973C270.822 154.875 270.733 154.77 270.609 154.744C270.485 154.719 270.361 154.779 270.25 154.84C269.792 155.094 269.36 155.393 268.964 155.734C268.803 155.872 268.639 156.032 268.599 156.239C268.553 156.481 268.687 156.717 268.82 156.926C269.743 158.376 270.846 159.714 272.095 160.901C272.301 161.097 272.526 161.296 272.805 161.353M256.931 186.429C256.904 186.497 256.877 186.567 256.879 186.639C256.882 186.846 257.122 186.985 257.329 186.964C257.537 186.943 257.715 186.812 257.88 186.685C259.354 185.564 260.827 184.442 262.3 183.321C262.53 183.146 262.782 182.928 262.781 182.641C262.78 182.416 262.621 182.227 262.471 182.058C261.824 181.332 261.177 180.605 260.529 179.878C260.428 179.765 260.319 179.646 260.173 179.601C259.773 179.479 259.465 179.948 259.314 180.335C258.52 182.366 257.725 184.398 256.931 186.429M264.369 184.592C264.28 184.489 264.186 184.382 264.059 184.332C263.876 184.261 263.671 184.325 263.487 184.392C261.508 185.121 259.734 186.384 258.406 188.009C258.708 188.174 259.072 188.172 259.417 188.165C261.764 188.12 264.111 188.075 266.459 188.03C266.716 188.025 267.073 187.901 267.007 187.654C266.127 186.634 265.248 185.613 264.369 184.592M258.102 141.947C257.943 142.104 257.773 142.286 257.77 142.509C257.767 142.659 257.843 142.799 257.917 142.93C258.74 144.396 259.562 145.862 260.384 147.328C260.562 147.645 260.747 147.97 261.037 148.191C261.327 148.411 261.753 148.499 262.059 148.302C262.486 148.028 262.912 147.754 263.339 147.479C263.654 147.277 263.987 146.821 263.683 146.604C261.92 145.347 260.484 143.644 259.549 141.702C259.424 141.444 259.072 141.363 258.797 141.45C258.522 141.536 258.307 141.745 258.102 141.947M265.867 156.747C266.221 156.4 266.238 155.819 266.042 155.365C265.846 154.912 265.479 154.557 265.121 154.214C264.143 153.278 263.166 152.342 262.188 151.407C261.915 151.146 261.633 150.879 261.28 150.741C260.927 150.604 260.483 150.628 260.22 150.899C259.733 151.403 260.188 152.22 260.642 152.754C261.521 153.789 262.401 154.823 263.281 155.858C263.613 156.249 263.96 156.651 264.423 156.877C264.886 157.103 265.501 157.107 265.867 156.747M267.647 144.398C268.329 144.387 268.766 143.585 268.651 142.919C268.537 142.253 268.056 141.717 267.594 141.22C266.647 140.197 265.699 139.175 264.751 138.153C264.442 137.82 264.031 137.454 263.59 137.572C263.201 137.676 263.002 138.136 263.056 138.532C263.11 138.928 263.35 139.271 263.582 139.597C264.492 140.873 265.401 142.148 266.311 143.424C266.644 143.891 267.071 144.408 267.647 144.398M285.717 179.395C285.691 179.551 285.783 179.7 285.871 179.831C286.769 181.173 287.667 182.515 288.565 183.857C288.833 184.257 289.354 184.474 289.83 184.384C290.306 184.294 290.709 183.902 290.809 183.431C290.953 182.753 290.513 182.102 290.096 181.546C289.346 180.547 288.596 179.548 287.847 178.549C287.613 178.238 287.137 178.197 286.778 178.351C286.419 178.505 286.149 178.807 285.893 179.099C285.816 179.187 285.736 179.281 285.717 179.395M293.165 182.288C293.426 182.111 293.7 181.918 293.815 181.626C294.009 181.134 293.672 180.606 293.352 180.183C292.596 179.188 291.834 178.198 291.065 177.214C290.75 176.811 290.391 176.381 289.886 176.281C289.442 176.193 288.953 176.417 288.731 176.809C288.509 177.2 288.573 177.731 288.88 178.06C290.061 179.327 291.042 180.777 291.777 182.34C292.001 182.816 292.727 182.585 293.165 182.288M254.678 144.858C254.764 145.26 255.041 145.592 255.309 145.905C256.39 147.171 257.472 148.437 258.553 149.703C258.637 149.802 258.723 149.902 258.831 149.974C259.091 150.147 259.469 150.118 259.7 149.909C259.931 149.699 259.992 149.328 259.841 149.057C258.901 147.368 257.961 145.68 257.02 143.992C256.731 143.472 256.034 143.216 255.472 143.424C254.91 143.632 254.553 144.277 254.678 144.858M298.357 190.142C298.199 190.316 298.031 190.515 298.036 190.749C298.041 190.948 298.172 191.12 298.298 191.276C299.176 192.374 300.059 193.468 300.946 194.56C301.093 194.741 301.248 194.928 301.462 195.024C301.98 195.259 302.555 194.875 302.992 194.513C303.185 194.354 303.396 194.153 303.372 193.905C303.358 193.759 303.263 193.635 303.172 193.519C302.149 192.232 301.126 190.945 300.103 189.658C299.889 189.388 299.47 189.356 299.151 189.49C298.832 189.624 298.589 189.887 298.357 190.142M261.054 141.409C261.715 143.188 262.929 144.849 264.67 145.635C265.099 145.828 265.72 145.906 265.938 145.493C266.159 145.075 265.741 144.623 265.394 144.301C264.014 143.023 263.191 141.276 262.402 139.575C262.154 139.043 261.257 139.191 260.977 139.707C260.696 140.223 260.849 140.859 261.054 141.409M295.728 184.361C295.446 183.979 295.149 183.584 294.726 183.364C294.304 183.143 293.717 183.153 293.411 183.516C292.924 184.094 293.456 184.94 293.949 185.512C294.904 186.62 295.772 187.799 296.544 189.038C296.844 189.518 297.589 189.196 298.029 188.836C298.258 188.648 298.512 188.394 298.444 188.107C298.42 188.003 298.354 187.913 298.29 187.827C297.436 186.671 296.582 185.516 295.728 184.361M293.4 173.682C293.366 174.107 293.611 174.5 293.846 174.856C294.829 176.345 295.818 177.841 297.043 179.142C297.775 179.095 298.196 178.208 298.046 177.496C297.897 176.784 297.374 176.218 296.905 175.659C296.278 174.911 295.713 174.112 295.219 173.273C295.011 172.919 294.56 172.726 294.158 172.816C293.756 172.907 293.434 173.275 293.4 173.682M294.559 190.915C294.879 191.133 295.354 191.094 295.633 190.825C295.935 190.534 295.977 190.051 295.845 189.654C295.713 189.257 295.439 188.924 295.17 188.602C294.393 187.669 293.616 186.737 292.839 185.804C292.549 185.456 292.24 185.094 291.816 184.931C291.391 184.768 290.819 184.887 290.638 185.301C290.446 185.737 290.76 186.217 291.057 186.591C292.107 187.911 293.156 189.231 294.205 190.552C294.311 190.684 294.418 190.819 294.559 190.915M303.7 184.409C303.644 184.193 303.49 184.016 303.341 183.847C302.243 182.605 301.145 181.362 300.047 180.12C299.958 180.02 299.862 179.915 299.733 179.877C299.606 179.84 299.47 179.875 299.342 179.911C299.032 179.996 298.706 180.091 298.482 180.32C298.259 180.55 298.19 180.96 298.426 181.177C299.319 181.997 300.117 182.918 300.8 183.916C301.197 184.497 301.605 185.145 302.273 185.38C302.94 185.615 303.876 185.089 303.7 184.409M272.31 153.319C272.017 153.708 272.21 154.261 272.448 154.684C273.161 155.952 274.192 157.01 275.211 158.053C275.472 158.321 275.746 158.597 276.099 158.726C276.452 158.855 276.908 158.79 277.114 158.478C277.397 158.05 277.073 157.493 276.759 157.086C275.968 156.059 275.176 155.032 274.385 154.005C274.126 153.669 273.854 153.323 273.472 153.137C273.09 152.951 272.564 152.981 272.31 153.319M306.173 190.685C306.522 191.11 307.049 191.583 307.55 191.352C307.987 191.152 308.162 190.483 308.644 190.481C307.799 189.403 306.955 188.325 306.111 187.247C305.77 186.813 305.405 186.36 304.887 186.161C304.37 185.963 303.663 186.141 303.49 186.663C303.33 187.145 303.674 187.636 303.996 188.029C304.722 188.915 305.448 189.8 306.173 190.685M274.54 150.044C273.692 148.727 272.735 147.48 271.682 146.317C271.405 146.012 271.121 145.712 270.838 145.412C270.606 145.167 270.357 144.911 270.03 144.821C269.638 144.712 269.183 144.894 268.977 145.242C268.77 145.59 268.831 146.072 269.117 146.359C270.235 147.48 271.353 148.601 272.47 149.721C272.764 150.016 273.074 150.321 273.474 150.441C273.873 150.562 274.384 150.427 274.54 150.044M279.743 156.297C279.847 156.216 279.958 156.121 279.972 155.991C279.986 155.854 279.886 155.734 279.793 155.632C278.579 154.308 277.365 152.984 276.151 151.659C275.91 151.397 275.599 151.11 275.248 151.18C274.908 151.249 274.722 151.647 274.769 151.988C274.815 152.329 275.028 152.622 275.234 152.899C275.737 153.576 276.24 154.252 276.742 154.929C277.333 155.723 277.951 156.542 278.823 157.019C279.13 156.778 279.436 156.537 279.743 156.297M297.714 182.259C297.419 181.937 297.028 181.584 296.603 181.694C296.221 181.793 296.029 182.25 296.09 182.636C296.151 183.023 296.396 183.353 296.634 183.666C297.317 184.565 298 185.464 298.684 186.363C299.04 186.831 299.541 187.355 300.115 187.214C300.624 187.09 300.864 186.465 300.749 185.959C300.635 185.453 300.269 185.045 299.917 184.661C299.183 183.86 298.449 183.06 297.714 182.259M295.866 192.172C295.536 192.687 295.91 193.349 296.286 193.832C296.874 194.588 297.492 195.32 298.138 196.026C298.394 196.306 298.676 196.594 299.045 196.686C299.447 196.786 299.902 196.607 300.126 196.262C300.35 195.917 300.324 195.432 300.066 195.111C299.462 194.362 298.858 193.613 298.254 192.864C297.949 192.485 297.627 192.093 297.181 191.895C296.735 191.697 296.128 191.764 295.866 192.172M266.407 146.961C266.128 147.366 266.493 147.89 266.837 148.241C268.038 149.468 269.24 150.694 270.441 151.92C270.695 152.18 271.003 152.46 271.366 152.423C271.823 152.376 272.073 151.816 271.964 151.374C271.855 150.931 271.508 150.591 271.175 150.277C270.12 149.279 269.065 148.282 268.011 147.284C267.784 147.07 267.548 146.85 267.253 146.75C266.957 146.65 266.583 146.706 266.407 146.961M291.842 174.502C291.444 174.507 291.174 174.955 291.21 175.347C291.246 175.74 291.493 176.078 291.73 176.394C292.585 177.531 293.44 178.667 294.294 179.804C294.461 180.026 294.636 180.255 294.884 180.383C295.131 180.51 295.473 180.504 295.652 180.292C295.911 179.988 295.688 179.531 295.462 179.202C294.528 177.84 293.594 176.478 292.661 175.115C292.46 174.822 292.199 174.497 291.842 174.502M305.565 191.964C304.492 190.682 303.419 189.399 302.346 188.116C302.217 187.962 302.075 187.799 301.879 187.748C301.497 187.647 301.135 188.055 301.132 188.447C301.13 188.838 301.365 189.188 301.596 189.506C302.311 190.485 303.085 191.422 303.912 192.311C304.206 192.626 304.542 192.954 304.973 193.007C305.403 193.06 305.894 192.663 305.755 192.257C305.717 192.146 305.64 192.054 305.565 191.964M269.94 162.229C270.211 162.52 270.528 162.832 270.928 162.838C271.327 162.844 271.685 162.307 271.386 162.045C270.17 160.981 269.09 159.764 268.181 158.432C267.937 158.075 267.68 157.688 267.275 157.528C266.871 157.369 266.292 157.592 266.282 158.024C266.276 158.279 266.462 158.495 266.637 158.683C267.738 159.865 268.839 161.047 269.94 162.229M292.184 156.58C292.307 157.502 293.201 158.257 294.139 158.232C294.293 158.228 294.457 158.2 294.568 158.095C294.677 157.992 294.713 157.836 294.743 157.689C294.885 157.006 294.895 156.079 294.229 155.852C293.955 155.758 293.648 155.83 293.367 155.757C293.171 155.706 292.99 155.585 292.787 155.586C292.344 155.587 292.125 156.145 292.184 156.58M256.767 188.293C256.494 188.003 256.082 187.872 255.681 187.859C255.463 187.852 255.236 187.879 255.049 187.992C254.881 188.095 254.759 188.261 254.68 188.441C254.325 189.255 255.054 190.335 255.947 190.268C256.839 190.202 257.377 188.942 256.767 188.293M274.131 174.407C274.514 174.387 274.854 174.055 274.88 173.676C274.893 173.496 274.84 173.311 274.733 173.164C274.413 172.723 273.61 172.794 273.374 173.283C273.137 173.772 273.584 174.436 274.131 174.407M277.972 161.932C278.121 162.023 278.282 162.118 278.457 162.112C278.632 162.107 278.814 161.952 278.776 161.783C278.096 161.163 277.416 160.542 276.735 159.922C276.559 160.315 276.693 160.791 276.959 161.132C277.224 161.472 277.603 161.706 277.972 161.932M288.808 173.588C289.073 173.815 289.498 173.426 289.426 173.086C289.354 172.746 289.024 172.532 288.721 172.356C288.419 172.18 288.088 171.968 288.013 171.629C287.575 172.269 288.218 173.081 288.808 173.588L288.808 173.588Z" fill="white"/>
</svg>
